#N canvas 274 16 1140 778 10;
#X declare -path rj;
#X obj 19 43 cnv 18 550 300 empty empty Réception\ série 20 12 0 18 #dfdfdf #404040 0;
#X obj 48 183 comport;
#X msg 48 78 devices;
#X msg 57 102 baud 19200;
#X obj 48 209 serial_print any;
#X obj 48 234 s;
#X obj 49 290 unpack f f;
#X floatatom 49 314 5 0 0 0 - - - 0;
#X floatatom 116 314 5 0 0 0 - - - 0;
#X msg 66 123 open 0;
#X text 148 77 <-- afficher les ports pour trouver celui d'arduino;
#X text 150 101 <-- vitesse de transmission égale à celle définie dans arduino, f 63;
#X text 150 122 <-- ouvrir le port correspondant à arduino, f 63;
#X obj 49 263 r pot;
#X text 156 262 <-- format du message envoyé : pot valeur1 valeur2, f 63;
#X obj 49 350 s pot1;
#X obj 116 350 s pot2;
#X obj 20 7 declare -path rj;
#X obj 20 375 cnv 18 400 380 empty empty Traitement\ sonore 20 12 0 18 #e0e0e0 #404040 0;
#X obj 58 440 r pot1;
#X obj 198 497 r pot2;
#X obj 128 694 rj/soundoutput;
#X msg 204 432 loop \$1;
#X obj 204 412 tgl 15 0 empty empty empty 17 7 0 10 #ff8300 #000000 #000000 0 1;
#X text 263 433 loop file;
#X obj 128 465 rj/s_looper;
#X msg 128 415 open;
#X floatatom 325 540 8 0 0 3 dur_in_smps - - 0;
#X floatatom 256 576 8 0 0 3 dur_in_ms - - 0;
#X symbolatom 255 540 10 0 0 3 table_name - - 0;
#X obj 255 503 unpack s f f f;
#X floatatom 316 577 6 0 0 3 samplerate - - 0;
#X text 251 484 sample file info;
#X msg 135 437 sr 44100;
#X obj 198 564 vsl 18 60 0 1 0 0 empty empty empty 0 -9 0 10 #faff00 #000000 #000000 0 1;
#X obj 198 521 / 1023;
#X obj 58 544 vsl 18 60 0 1 0 0 empty empty empty 0 -9 0 10 #faff00 #000000 #000000 0 1;
#X obj 58 465 / 1023;
#X obj 129 661 *~;
#X obj 161 659 *~;
#X obj 78 490 swap 1;
#X obj 78 513 -;
#X obj 100 544 vsl 18 60 0 1 0 0 empty empty empty 0 -9 0 10 #faff00 #000000 #000000 0 1;
#X obj 128 629 *~;
#X obj 160 629 *~;
#X obj 611 40 cnv 18 320 150 empty empty Envoi\ OSC\ vers\ processing 20 12 0 18 #e0e0e0 #404040 0;
#X obj 675 160 netsend -u -b;
#X msg 642 75 connect localhost 9990;
#X obj 675 103 r pot1;
#X obj 781 103 r pot2;
#X obj 675 130 oscformat pot1;
#X obj 781 130 oscformat pot2;
#X obj 611 205 cnv 18 320 240 empty empty Réception\ OSC\ pour\ tests 20 12 0 18 #e0e0e0 #404040 0;
#X msg 709 237 listen 9990;
#X obj 709 261 netreceive -u -b;
#X obj 709 285 oscparse;
#X obj 709 308 list trim;
#X obj 669 373 nbx 4 30 -1e+37 1e+37 0 0 empty empty pot1 0 50 0 24 #faff00 #000000 #000000 0 256;
#X obj 709 331 route pot1 pot2;
#X obj 784 374 nbx 4 30 -1e+37 1e+37 0 0 empty empty pot2 0 50 0 24 #faff00 #000000 #000000 0 256;
#X text 440 460 1 configurer le port d'écoute arduino;
#X text 440 480 (les valeurs s'affichent dans les boites);
#X text 440 500 2 régler volume de soundoutput au maximum;
#X text 440 520 3 ouvrir un fichier pour s_looper avec [open<;
#X text 440 572 5 connecter l'envoi OSC sur le port 9990;
#X text 440 542 4 activer la lecture en boucle avec le toggle au dessus de [loop<;
#X text 440 592 6 connecter l'écoute OSC sur le port 9990;
#X msg 832 237 listen 0;
#X connect 1 0 4 0;
#X connect 2 0 1 0;
#X connect 3 0 1 0;
#X connect 4 0 5 0;
#X connect 4 1 5 1;
#X connect 6 0 7 0;
#X connect 6 1 8 0;
#X connect 7 0 15 0;
#X connect 8 0 16 0;
#X connect 9 0 1 0;
#X connect 13 0 6 0;
#X connect 19 0 37 0;
#X connect 20 0 35 0;
#X connect 22 0 25 0;
#X connect 23 0 22 0;
#X connect 25 0 43 0;
#X connect 25 0 44 0;
#X connect 25 3 30 0;
#X connect 26 0 25 0;
#X connect 30 0 29 0;
#X connect 30 1 28 0;
#X connect 30 2 27 0;
#X connect 30 3 31 0;
#X connect 33 0 25 0;
#X connect 34 0 38 1;
#X connect 34 0 39 1;
#X connect 35 0 34 0;
#X connect 36 0 43 1;
#X connect 37 0 36 0;
#X connect 37 0 40 0;
#X connect 38 0 21 0;
#X connect 39 0 21 1;
#X connect 40 0 41 0;
#X connect 40 1 41 1;
#X connect 41 0 42 0;
#X connect 42 0 44 1;
#X connect 43 0 38 0;
#X connect 44 0 39 0;
#X connect 47 0 46 0;
#X connect 48 0 50 0;
#X connect 49 0 51 0;
#X connect 50 0 46 0;
#X connect 51 0 46 0;
#X connect 53 0 54 0;
#X connect 54 0 55 0;
#X connect 55 0 56 0;
#X connect 56 0 58 0;
#X connect 58 0 57 0;
#X connect 58 1 59 0;
#X connect 67 0 54 0;
