#N canvas 704 126 450 554 10;
#X obj 178 155 comport;
#X msg 178 50 devices;
#X msg 187 74 baud 19200;
#X msg 196 95 open 3;
#X obj 178 181 serial_print any;
#X obj 178 206 s;
#X obj 179 245 r bob;
#X obj 179 272 unpack f f;
#X floatatom 179 296 5 0 0 0 - - -, f 5;
#X floatatom 246 296 5 0 0 0 - - -, f 5;
#X connect 0 0 4 0;
#X connect 1 0 0 0;
#X connect 2 0 0 0;
#X connect 3 0 0 0;
#X connect 4 0 5 0;
#X connect 4 1 5 1;
#X connect 6 0 7 0;
#X connect 7 0 8 0;
#X connect 7 1 9 0;
