#N canvas 369 95 682 542 24;
#X obj 232 229 comport;
#X msg 412 70 devices;
#X msg 226 69 open 3;
#X msg 82 119 baud 19200;
#X obj 55 245 print;
#X obj 232 319 s;
#X obj 234 373 r valeurs;
#X obj 234 412 unpack f f f;
#X floatatom 232 459 5 0 0 0 - - -;
#X floatatom 304 464 5 0 0 0 - - -;
#X floatatom 367 463 5 0 0 0 - - -;
#X obj 232 276 serial_print any;
#X connect 0 0 11 0;
#X connect 1 0 0 0;
#X connect 2 0 0 0;
#X connect 3 0 0 0;
#X connect 6 0 7 0;
#X connect 7 0 8 0;
#X connect 7 1 9 0;
#X connect 7 2 10 0;
#X connect 11 0 5 0;
#X connect 11 1 5 1;
